/* XPM */
/**********************************************/
/* SPDX-License-Identifier: AGPL-3.0-or-later */
/* (c)2025 David SPORN                        */
/**********************************************/
static char * 01_regular_blue_xpm[] = {
"8 8 12 1",
" 	c #DDEEDD",
".	c #DDCC66",
"+	c #66BBCC",
"@	c #CCAA99",
"#	c #889999",
"$	c #777766",
"%	c #333366",
"&	c #555555",
"*	c #336622",
"=	c #5577CC",
"-	c #66AA33",
";	c #442233",
" #.#@#@$",
"%&*&**=&",
"======-&",
"======.%",
"======.&",
"=====- %",
".      ;",
"&%&%&%;;"};
