/* XPM */
/**********************************************/
/* SPDX-License-Identifier: AGPL-3.0-or-later */
/* (c)2025 David SPORN                        */
/**********************************************/
static char * 00_regular_xpm[] = {
"4 4 6 1",
" 	c #333366",
".	c #889999",
"+	c #DDEEDD",
"@	c #777766",
"#	c #5577CC",
"$	c #442233",
" .. ",
".+.@",
"..@#",
" @#$"};
