/* XPM */
/**********************************************/
/* SPDX-License-Identifier: AGPL-3.0-or-later */
/* (c)2025 David SPORN                        */
/**********************************************/
static char * 01_sticky_xpm[] = {
"4 4 7 1",
" 	c #333366",
".	c #66BBCC",
"+	c #66AA33",
"@	c #DDEEDD",
"#	c #336622",
"$	c #5577CC",
"%	c #442233",
" .+ ",
".@+#",
"++$#",
" ##%"};
