/* XPM */
/**********************************************/
/* SPDX-License-Identifier: AGPL-3.0-or-later */
/* (c)2025 David SPORN                        */
/**********************************************/
static char * 02_fire_xpm[] = {
"4 4 5 1",
" 	c #884433",
".	c #DDCC66",
"+	c #CC7733",
"@	c #442233",
"#	c #DDEEDD",
" .+@",
".#+ ",
"++  ",
"@  @"};
