/* XPM */
/**********************************************/
/* SPDX-License-Identifier: AGPL-3.0-or-later */
/* (c)2025 David SPORN                        */
/**********************************************/
static char * 03_water_xpm[] = {
"4 4 6 1",
" 	c #333366",
".	c #66BBCC",
"+	c #DDEEDD",
"@	c #555555",
"#	c #336622",
"$	c #442233",
" .. ",
".+@.",
".@#.",
" ..$"};
