/* XPM */
/**********************************************/
/* SPDX-License-Identifier: AGPL-3.0-or-later */
/* (c)2025 David SPORN                        */
/**********************************************/
static char * 00_regular_xpm[] = {
"64 8 13 1",
" 	c #111122",
".	c #DDEEDD",
"+	c #DDCC66",
"@	c #CCAA99",
"#	c #66AA33",
"$	c #889999",
"%	c #336622",
"&	c #5577CC",
"*	c #777766",
"=	c #555555",
"-	c #66BBCC",
";	c #333366",
">	c #442233",
"             ..+.+.+.++++@+@+@@@#@@#@#@$#$#$#$#$#$#%            ",
" &#$&*&*&*&=.++@@@@@@@@@@#@#@###$###$###$###$#####$#=-*&*&*&#+* ",
"&---------+&+@@$#@@$#$@$#@#@##$$##$$##$$$#$$##$#$$#$=@#$------+*",
"#+......++$=+@#$@#$$@#$$@#$$@#$$@#$$@#$$@#$$@#$$@#$&%+........-$",
"&.@*=;=;>;>>$$$&$&$&$&$&$&$&$&$&$&$&$&$&$&$&$&$&$&*&>;>;>;>;=&#*",
"%#&=;>;>;>;;#*&*&=%*&=%*&=%*&=&*&=&*&=&*&=&*&=&*&=%=>>;>;>;=&#&;",
" %=%=%=%=%=%*%;%;%;%;%;%;%;%;%;%;%;%;%;=;=;>;>;>;>>>>=%=%=%=%=; ",
"            ;>>;>>>;>>>;>>>;>>>;>>>;>>>>>>>>>>>>>>>>            "};
