/* XPM */
/**********************************************/
/* SPDX-License-Identifier: AGPL-3.0-or-later */
/* (c)2025 David SPORN                        */
/**********************************************/
static char * 00_regular_red_xpm[] = {
"32 8 12 1",
" 	c #DDEEDD",
".	c #CCAA99",
"+	c #66BBCC",
"@	c #889999",
"#	c #777766",
"$	c #DDCC66",
"%	c #333366",
"&	c #555555",
"*	c #884433",
"=	c #CC4444",
"-	c #CC7733",
";	c #442233",
"  .+.@.#   $ $ $.$.$.$.$.@.@.@.#",
" %%&&*=& %%%%%%&%&%&%&%&%&*&**=&",
".%*===-&.%*===================-&",
"+&====.%+%====================.%",
".&====.&.&====================.&",
"@*===- %@*===================- %",
".=-..  ;.=$.$.$.$ $ $ $ $      ;",
"#&&%&%;;#&&%&%&%&%&%&%&%&%&%&%;;"};
