/* XPM */
/**********************************************/
/* SPDX-License-Identifier: AGPL-3.0-or-later */
/* (c)2025 David SPORN                        */
/**********************************************/
static char * 02_regular_yellow_xpm[] = {
"32 8 10 1",
" 	c #DDEEDD",
".	c #DDCC66",
"+	c #66BBCC",
"@	c #CCAA99",
"#	c #889999",
"$	c #777766",
"%	c #333366",
"&	c #555555",
"*	c #884433",
"=	c #442233",
"  .+@#@$   . . . ...@.@. #.#@#@$",
" %%&&*.& %%%%%%&%&%&%&%&%&*&**.&",
".%$@@.@&.%$@.@.@.@.@.@.@.@.@.@@&",
"+&...@ %+&@.@.@.@.@.@.@.@.@.@. %",
"@&@.@..&@&.@.@.@.@.@.@.@.@.@.@.&",
"#*.@.@ %#*@.@.@.@.@.@.@.@.@.@. %",
"@.@ .  =@..@.@.@. . . . .      =",
"$&&%%&==$&&%&%&%&%&%&%&%&%&%&%=="};
