/* XPM */
/**********************************************/
/* SPDX-License-Identifier: AGPL-3.0-or-later */
/* (c)2025 David SPORN                        */
/**********************************************/
static char * 05_star_xpm[] = {
"8 16 9 1",
" 	c #111122",
".	c #CCAA99",
"+	c #884433",
"@	c #DDCC66",
"#	c #889999",
"$	c #333366",
"%	c #CC7733",
"&	c #777766",
"*	c #555555",
"   ..   ",
"  +@@+  ",
".@@@@@@.",
"+.@@@@.+",
" +@@@@+ ",
" #@@@@# ",
"$@@%%@@$",
"+%$  $%+",
"   &&   ",
"  *##*  ",
"&######&",
"$&####&$",
" $####$ ",
" &####& ",
"$##&&##$",
"*&$  $&*"};
