/* XPM */
/**********************************************/
/* SPDX-License-Identifier: AGPL-3.0-or-later */
/* (c)2025 David SPORN                        */
/**********************************************/
static char * 06_exit_xpm[] = {
"32 8 11 1",
" 	c #DDEEDD",
".	c #DDCC66",
"+	c #889999",
"@	c #CCAA99",
"#	c #777766",
"$	c #336622",
"%	c #555555",
"&	c #333366",
"*	c #5577CC",
"=	c #66BBCC",
"-	c #442233",
"   . . . +.+@+@#   . . . +.+@+@#",
" $...$.$.$$@$$$% &%%%&%&%&&%&&&%",
".$.*$$$*.$$.@$$%.&%&&&&&%&&%%&&%",
"=$.$.$.......@$&=&%&%&%%%%%%%%&&",
"@$..*$$..$$.@$$%@&%%&&&%%&&%%&&%",
"+$+$$.$..$$@$$$&+&&&&%&%%&&%&&&&",
"@$....$..$$$$$$-@&%%%%&%%&&&&&&-",
"#%%&%&%&%&%&%&--#%%&%&%&%&%&%&--"};
