/* XPM */
/**********************************************/
/* SPDX-License-Identifier: AGPL-3.0-or-later */
/* (c)2025 David SPORN                        */
/**********************************************/
static char * 07_waterball_xpm[] = {
"16 8 6 1",
" 	c #111122",
".	c #333366",
"+	c #DDEEDD",
"@	c #66BBCC",
"#	c #5577CC",
"$	c #442233",
" .++@#@#@#@##@# ",
".++@+@#@#@##@+##",
"@++++@+@+@+@++#@",
"#@+  $.##@#@#@.#",
"@#@$$.##@#@#@+.#",
"#@+#@#@+@+@+++#@",
".##$$$$..#.#.#..",
" .@$.$..#.#.#@. "};
