/* XPM */
/**********************************************/
/* SPDX-License-Identifier: AGPL-3.0-or-later */
/* (c)2025 David SPORN                        */
/**********************************************/
static char * 08_fireball_xpm[] = {
"16 8 7 1",
" 	c #111122",
".	c #442233",
"+	c #DDCC66",
"@	c #CCAA99",
"#	c #CC7733",
"$	c #884433",
"%	c #DDEEDD",
" .++@#@#$#$#$@$ ",
".+%@+@#@#$#$@+$$",
"@%%%%++@+@+@++#@",
"$$+  .$##@#@#@$#",
"$#@..$##@#@#@+.#",
"#@+#@#@+@++%%%#@",
".$#....$$#$#$#..",
" .@.$.$$#$#$#@. "};
