/* XPM */
/**********************************************/
/* SPDX-License-Identifier: AGPL-3.0-or-later */
/* (c)2025 David SPORN                        */
/**********************************************/
static char * 09_stickyball_xpm[] = {
"16 8 12 1",
" 	c #111122",
".	c #333366",
"+	c #336622",
"@	c #CCAA99",
"#	c #66AA33",
"$	c #777766",
"%	c #DDEEDD",
"&	c #DDCC66",
"*	c #5577CC",
"=	c #555555",
"-	c #442233",
";	c #66BBCC",
" .+@#@#@#$+$++. ",
".+@%%%%%&#*+=++.",
"+@%&&#$+.+.- -=+",
"$&%#+.+.+.-.- .+",
"+#*=.-.-.-.-- *+",
"++= -------- .;*",
".+.-        .*#.",
" .+++++++*+*+*. "};
