/* XPM */
/**********************************************/
/* SPDX-License-Identifier: AGPL-3.0-or-later */
/* (c)2025 David SPORN                        */
/**********************************************/
static char * 10_key_xpm[] = {
"16 8 6 1",
" 	c #111122",
".	c #DDEEDD",
"+	c #DDCC66",
"@	c #CC7733",
"#	c #884433",
"$	c #CCAA99",
"            .+@ ",
"           .+#@#",
" .+.+.$..+.+# +#",
" $@@@@#@@@@@# +#",
"  #########@# .#",
"  @@#@     #@+@#",
" ++@++@     #@# ",
" +@#@@#         "};
